# AST/ASF file generated using VICON BodyLanguage
# -----------------------------------------------
:version 1.10
:name VICON
:units
  mass 1.0
  length 0.45
  angle deg
:documentation
   .ast/.asf automatically generated from VICON data using
   VICON BodyBuilder and BodyLanguage model FoxedUp or BRILLIANT.MOD
:root
   order TX TY TZ RX RY RZ
   axis XYZ
   position 0 0 0  
   orientation 0 0 0 
:bonedata
  begin
     id 1 
     name lhipjoint
     direction 0.702568 -0.596508 0.388042 
     length 2.56661 
     axis 0 0 0  XYZ
  end
  begin
     id 2 
     name lfemur
     direction 0.34202 -0.939693 0  
     length 6.58374  
     axis 0 0 20  XYZ
    dof rx ry rz
    limits (-160.0 20.0)
           (-70.0 70.0)
           (-60.0 70.0)
  end
  begin
     id 3 
     name ltibia
     direction 0.34202 -0.939693 0   
     length 6.62538   
     axis 0 0 20   XYZ
    dof rx
    limits (-10.0 170.0)
  end
  begin
     id 4 
     name lfoot
     direction 0.10455 -0.287249 0.952133   
     length 2.26699   
     axis -90 7.62852e-016 20   XYZ
    dof rx rz
    limits (-45.0 90.0)
           (-70.0 20.0)
  end
  begin
     id 5 
     name ltoes
     direction 1.53572e-011 -4.22322e-011 1   
     length 1.12949   
     axis -90 7.62852e-016 20   XYZ
    dof rx
    limits (-90.0 20.0)
  end
  begin
     id 6 
     name rhipjoint
     direction -0.728055 -0.574632 0.373811   
     length 2.66432  
     axis 0 0 0  XYZ 
  end
  begin
     id 7 
     name rfemur
     direction -0.34202 -0.939693 0   
     length 6.66732   
     axis 0 0 -20   XYZ
    dof rx ry rz
    limits (-160.0 20.0)
           (-70.0 70.0)
           (-70.0 60.0)
  end
  begin
     id 8 
     name rtibia
     direction -0.34202 -0.939693 0   
     length 6.59288   
     axis 0 0 -20   XYZ
    dof rx
    limits (-10.0 170.0)
 end
 begin
     id 9 
     name rfoot
     direction -0.119193 -0.327479 0.93731   
     length 2.38061  
     axis -90 -7.62852e-016 -20   XYZ
    dof rx rz
    limits (-45.0 90.0)
           (-20.0 70.0)
  end
  begin
     id 10 
     name rtoes
     direction -1.53547e-011 -4.21827e-011 1   
     length 1.17899   
     axis -90 -7.62852e-016 -20   XYZ
    dof rx
    limits (-90.0 20.0)
  end
  begin
     id 11 
     name lowerback
     direction -0.000416114 0.999912 -0.0132284   
     length 2.12109   
     axis 0 0 0   XYZ
    dof rx ry rz
    limits (-20.0 45.0)
           (-30.0 30.0)
           (-30.0 30.0)
  end
  begin
     id 12 
     name upperback
     direction -0.00136371 0.99809 0.0617608   
     length 2.10067   
     axis 0 0 0   XYZ
    dof rx ry rz
    limits (-20.0 45.0)
           (-30.0 30.0)
           (-30.0 30.0)
  end
  begin
     id 13 
     name thorax
     direction -3.43026e-005 0.997776 0.0666515   
     length 2.10618   
     axis 0 0 0   XYZ
    dof rx ry rz
    limits (-20.0 45.0)
           (-30.0 30.0)
           (-30.0 30.0)
  end
  begin
     id 14 
     name lowerneck
     direction 0.0398646 0.998418 0.0396592   
     length 1.83817   
     axis 0 0 0   XYZ
    dof rx ry rz
    limits (-20.0 45.0)
           (-30.0 30.0)
           (-30.0 30.0)
  end
  begin
     id 15 
     name upperneck
     direction -0.0367268 0.961527 -0.272244   
     length 1.81975   
     axis 0 0 0   XYZ
    dof rx ry rz
    limits (-20.0 45.0)
           (-30.0 30.0)
           (-30.0 30.0)
  end
  begin
     id 16
     name head
     direction -0.0182665 0.99536 -0.0944669  
     length 1.86026  
     axis 0 0 0   XYZ
    dof rx ry rz
    limits (-20.0 45.0)
           (-30.0 30.0)
           (-30.0 30.0)
  end
  begin
     id 17 
     name lclavicle
     direction 0.924239 0.361045 0.124212  
     length 3.26878  
     axis 0 0 0   XYZ
    dof ry rz
    limits (-20.0 10.0)
           (0.0 20.0)
  end
  begin
     id 18 
     name lhumerus
     direction 1 -4.48968e-011 -2.56583e-027   
     length 4.58538   
     axis 180 -30 -90   XYZ
    dof rx ry rz
    limits (-60.0 90.0)
           (-90.0 90.0)
           (-90.0 90.0)
  end
  begin
     id 19
     name lradius
     direction 1 -4.4898e-011 -5.50375e-027   
     length 2.68935   
     axis 180 -30 -90   XYZ
    dof rx
    limits (-10.0 170.0)
  end
  begin
     id 20
     name lwrist
     direction 1 -4.48939e-011 -1.48955e-026   
     length 1.34468   
     axis 9.0955e-015 90 90   XYZ
    dof ry
    limits (-180.0 0.0)
 end
  begin
     id 21 
     name lhand
     direction 1 -4.48936e-011 -2.97907e-026   
     length 0.585058   
     axis 1.90115e-014 90 90   XYZ
    dof rx rz
    limits (-90.0 90.0)
           (-45.0 45.0)
  end
  begin
     id 22 
     name lfingers
     direction 1 -4.49082e-011 -5.96235e-026   
     length 0.471689   
     axis 3.80223e-014 90 90   XYZ
    dof rx
    limits (0.0 90.0)
  end
  begin
     id 23
     name lthumb
     direction 0.707107 -6.3489e-011 0.707107   
     length 0.677253   
     axis -90 45 -3.84942e-014   XYZ
    dof rx rz
    limits (-45.0 45.0)
           (-45.0 45.0)
  end
  begin
     id 24 
     name rclavicle
     direction -0.923098 0.371783 0.0983239   
     length 3.19656  
     axis 0 0 0   XYZ 
    dof ry rz
    limits (-10.0 20.0)
           (-20.0 0.0)
  end
  begin
     id 25 
     name rhumerus
     direction -1 -4.48976e-011 -2.5492e-027  
     length 4.4745   
     axis 180 30 90   XYZ
    dof rx ry rz
    limits (-90.0 60.0)
           (-90.0 90.0)
           (-90.0 90.0)
  end
  begin
     id 26 
     name rradius
     direction -1 -4.48941e-011 -4.36555e-027   
     length 2.93896   
     axis 180 30 90   XYZ
    dof rx
    limits (-10.0 170.0)
  end
  begin
     id 27 
     name rwrist
     direction -1 -4.49044e-011 -1.49032e-026   
     length 1.46948   
     axis 9.0955e-015 -90 -90   XYZ
    dof ry
    limits (-180.0 0.0)
  end
  begin
     id 28
     name rhand
     direction -1 -4.48826e-011 -2.97749e-026   
     length 0.405092   
     axis 1.90115e-014 -90 -90   XYZ
    dof rx rz
    limits (-90.0 90.0)
           (-45.0 45.0)
  end
  begin
     id 29
     name rfingers
     direction -1 -4.49209e-011 -5.96602e-026   
     length 0.326596   
     axis 3.80223e-014 -90 -90   XYZ
    dof rx
    limits (0.0 90.0)
  end
  begin
     id 30
     name rthumb
     direction -0.707107 -6.34776e-011 0.707107   
     length 0.468928   
     axis -90 -45 3.84942e-014   XYZ
    dof rx rz
    limits (-45.0 45.0)
           (-45.0 45.0)
  end
:hierarchy
  begin
    root lhipjoint rhipjoint lowerback
    lhipjoint lfemur
    lfemur ltibia
    ltibia lfoot
    lfoot ltoes
    rhipjoint rfemur
    rfemur rtibia
    rtibia rfoot
    rfoot rtoes
    lowerback upperback
    upperback thorax
    thorax lowerneck lclavicle rclavicle
    lowerneck upperneck
    upperneck head
    lclavicle lhumerus
    lhumerus lradius
    lradius lwrist
    lwrist lhand lthumb
    lhand lfingers
    rclavicle rhumerus
    rhumerus rradius
    rradius rwrist
    rwrist rhand rthumb
    rhand rfingers
  end

#!OML:ASF H:\Punching\Project 1\Capture day 1\Session 1\female.ASF
:FULLY-SPECIFIED
:DEGREES
376
root -1.33515 15.4181 7.53533 8.10509 -14.1754 -1.63383
lowerback -0.662504 -2.36588 4.71818
upperback -6.1962 -3.00459 1.22375
thorax -6.25655 -1.71837 -1.20859
lowerneck -1.54814 9.88248 16.4357
upperneck 24.2637 14.853 -11.2916
head 10.0559 7.46321 -5.16152
rclavicle 1.13804e-014 -4.77083e-015
rhumerus 11.5044 29.1437 -96.2964
rradius 68.9568
rwrist -5.18412
rhand -18.8213 -11.1499
rfingers 7.12502
rthumb 7.47764 -40.9977
lclavicle 1.13804e-014 -4.77083e-015
lhumerus 1.94619 -32.2499 96.0312
lradius 68.8675
lwrist 23.0026
lhand 1.87813 24.8057
lfingers 7.12502
lthumb 27.388 52.8353
rfemur -15.8413 1.44766 19.8293
rtibia 34.0587
rfoot -24.8372 -14.8945
rtoes -10.7182
lfemur -29.9299 7.47971 -10.8599
ltibia 54.4771
lfoot -12.6044 9.41098
ltoes -10.6212
377
root -1.32154 15.4164 7.58556 8.08987 -14.3005 -1.52885
lowerback -0.528047 -2.45581 4.48319
upperback -6.16646 -3.12201 1.28422
thorax -6.29017 -1.76209 -1.00372
lowerneck -1.51756 9.96795 16.4691
upperneck 24.2366 15.0032 -11.4157
head 10.0783 7.52573 -5.19129
rclavicle -1.56294e-014 -3.57812e-015
rhumerus 12.1722 30.466 -96.1369
rradius 71.1414
rwrist -4.78122
rhand -18.5744 -10.93
rfingers 7.12502
rthumb 7.71591 -40.7692
lclavicle -1.56294e-014 -3.57812e-015
lhumerus 3.19267 -31.7549 96.3018
lradius 70.0754
lwrist 24.8046
lhand 2.17148 25.1981
lfingers 7.12502
lthumb 27.6686 53.183
rfemur -15.7236 1.43304 19.6181
rtibia 34.0878
rfoot -24.757 -14.7381
rtoes -10.5992
lfemur -30.3673 7.2525 -10.6685
ltibia 53.0573
lfoot -12.5101 9.69565
ltoes -10.4053
378
root -1.306 15.4146 7.63805 8.08434 -14.4276 -1.43449
lowerback -0.388178 -2.54153 4.26316
upperback -6.14283 -3.23339 1.34675
thorax -6.33299 -1.80372 -0.804548
lowerneck -1.47447 10.05 16.5085
upperneck 24.1991 15.1527 -11.5551
head 10.0964 7.58779 -5.22815
rclavicle -2.7805e-014 2.90226e-014
rhumerus 12.7859 31.7185 -95.9492
rradius 73.2836
rwrist -3.8395
rhand -18.1672 -10.6394
rfingers 7.12502
rthumb 8.10901 -40.4638
lclavicle -2.7805e-014 2.90226e-014
lhumerus 4.40382 -31.3497 96.556
lradius 71.3652
lwrist 26.8126
lhand 2.29635 25.5704
lfingers 7.12502
lthumb 27.788 53.5361
rfemur -15.5975 1.42839 19.4075
rtibia 34.1003
rfoot -24.6723 -14.594
rtoes -10.4623
lfemur -30.7228 6.94526 -10.4352
ltibia 51.4294
lfoot -12.4381 10.1047
ltoes -10.0857
379
root -1.28862 15.4126 7.69266 8.09907 -14.5575 -1.35705
lowerback -0.249431 -2.62561 4.05951
upperback -6.13006 -3.34204 1.41841
thorax -6.3863 -1.84481 -0.604408
lowerneck -1.42647 10.1319 16.547
upperneck 24.1609 15.3054 -11.7052
head 10.1151 7.65068 -5.26851
rclavicle 6.79844e-014 2.38542e-015
rhumerus 13.3502 32.9144 -95.7244
rradius 75.3526
rwrist -2.12011
rhand -17.5863 -10.278
rfingers 7.12502
rthumb 8.66954 -40.08
lclavicle 6.79844e-014 2.38542e-015
lhumerus 5.61062 -31.0465 96.7481
lradius 72.7212
lwrist 29.0227
lhand 2.25848 25.9
lfingers 7.12502
lthumb 27.7518 53.8716
rfemur -15.4694 1.43935 19.2047
rtibia 34.0895
rfoot -24.5814 -14.4686
rtoes -10.2866
lfemur -31.0106 6.56934 -10.152
ltibia 49.6232
lfoot -12.391 10.6209
ltoes -9.66921
380
root -1.26937 15.4107 7.74999 8.14019 -14.6891 -1.29749
lowerback -0.127758 -2.70456 3.8833
upperback -6.1252 -3.44414 1.49098
thorax -6.43894 -1.88414 -0.419173
lowerneck -1.37921 10.2132 16.5886
upperneck 24.1252 15.4579 -11.857
head 10.1356 7.71356 -5.30992
rclavicle 7.55382e-015 6.75868e-015
rhumerus 13.8363 34.0059 -95.4981
rradius 77.3595
rwrist 0.476301
rhand -16.8055 -9.83114
rfingers 7.12502
rthumb 9.42301 -39.6005
lclavicle 7.55382e-015 6.75868e-015
lhumerus 6.82793 -30.8435 96.8634
lradius 74.1253
lwrist 31.328
lhand 2.13434 26.1685
lfingers 7.12502
lthumb 27.6331 54.1592
rfemur -15.3404 1.4662 19.0108
rtibia 34.0485
rfoot -24.477 -14.3673
rtoes -10.08
lfemur -31.2447 6.13022 -9.81626
ltibia 47.6659
lfoot -12.3603 11.2255
ltoes -9.23006
381
root -1.24831 15.4094 7.81022 8.21117 -14.8213 -1.2554
lowerback -0.0242802 -2.78144 3.73164
upperback -6.13144 -3.54352 1.56775
thorax -6.49358 -1.92342 -0.243542
lowerneck -1.33906 10.2981 16.6245
upperneck 24.1029 15.6148 -12.0029
head 10.1626 7.77824 -5.34733
rclavicle -2.64384e-014 2.38542e-015
rhumerus 14.2565 35.0295 -95.2492
rradius 79.3288
rwrist 3.70676
rhand -15.9645 -9.29257
rfingers 7.12502
rthumb 10.2344 -39.0236
lclavicle -2.64384e-014 2.38542e-015
lhumerus 8.06765 -30.7104 96.8865
lradius 75.5735
lwrist 33.6735
lhand 2.00099 26.4284
lfingers 7.12502
lthumb 27.5055 54.4395
rfemur -15.2107 1.51187 18.8253
rtibia 33.9702
rfoot -24.3606 -14.2877
rtoes -9.80973
lfemur -31.4348 5.62645 -9.42484
ltibia 45.5839
lfoot -12.343 11.8994
ltoes -8.80428
382
root -1.22539 15.4086 7.87339 8.31279 -14.9609 -1.23146
lowerback 0.055702 -2.85382 3.6099
upperback -6.14625 -3.63718 1.64354
thorax -6.54518 -1.96155 -0.0865222
lowerneck -1.30672 10.3875 16.6609
upperneck 24.0925 15.7761 -12.1386
head 10.1957 7.84537 -5.38007
rclavicle 1.34677e-014 -2.78299e-015
rhumerus 14.6225 36.0019 -94.9738
rradius 81.302
rwrist 7.22209
rhand -15.1722 -8.73651
rfingers 7.12502
rthumb 10.9986 -38.4284
lclavicle 1.34677e-014 -2.78299e-015
lhumerus 9.3406 -30.6577 96.7907
lradius 77.0628
lwrist 35.9459
lhand 1.86244 26.7339
lfingers 7.12502
lthumb 27.373 54.7659
rfemur -15.0806 1.58062 18.6475
rtibia 33.8494
rfoot -24.225 -14.2297
rtoes -9.50109
lfemur -31.5831 5.06745 -8.97677
ltibia 43.4041
lfoot -12.2994 12.6172
ltoes -8.4273
383
root -1.20053 15.4086 7.93965 8.44271 -15.1075 -1.22148
lowerback 0.104408 -2.92285 3.52618
upperback -6.16629 -3.72712 1.70905
thorax -6.58714 -2.00021 0.0372044
lowerneck -1.27676 10.4813 16.7045
upperneck 24.0895 15.9401 -12.2617
head 10.2325 7.91523 -5.40868
rclavicle -3.5657e-014 9.93923e-015
rhumerus 14.9562 36.9558 -94.6656
rradius 83.3218
rwrist 10.5686
rhand -14.491 -8.25486
rfingers 7.12502
rthumb 11.6556 -37.9107
lclavicle -3.5657e-014 9.93923e-015
lhumerus 10.6581 -30.6971 96.5407
lradius 78.5875
lwrist 38.0618
lhand 1.68385 27.1214
lfingers 7.12502
lthumb 27.2022 55.1803
rfemur -14.9464 1.66905 18.4721
rtibia 33.6825
rfoot -24.0773 -14.1905
rtoes -9.16766
lfemur -31.6946 4.44903 -8.47272
ltibia 41.1537
lfoot -12.1913 13.3504
ltoes -8.03143
384
root -1.17372 15.4092 8.00883 8.59725 -15.2615 -1.22319
lowerback 0.13294 -2.99038 3.46906
upperback -6.19564 -3.81514 1.77118
thorax -6.62919 -2.0396 0.141985
lowerneck -1.24784 10.5788 16.7445
upperneck 24.0968 16.1072 -12.3704
head 10.2727 7.98722 -5.43093
rclavicle -3.21037e-014 1.51076e-014
rhumerus 15.266 37.9559 -94.2994
rradius 85.4187
rwrist 13.2366
rhand -14.0756 -7.99561
rfingers 7.12502
rthumb 12.0562 -37.6283
lclavicle -3.21037e-014 1.51076e-014
lhumerus 12.0205 -30.8079 96.1289
lradius 80.11
lwrist 39.9055
lhand 1.53238 27.5298
lfingers 7.12502
lthumb 27.0573 55.6113
rfemur -14.805 1.77663 18.2963
rtibia 33.4693
rfoot -23.9229 -14.172
rtoes -8.87022
lfemur -31.771 3.77474 -7.91582
ltibia 38.8627
lfoot -11.9472 14.0784
ltoes -7.62075
385
root -1.14503 15.4104 8.08081 8.77221 -15.4212 -1.23422
lowerback 0.135835 -3.07326 3.42836
upperback -6.23417 -3.92369 1.84501
thorax -6.66692 -2.08981 0.250148
lowerneck -1.17763 10.6906 16.7692
upperneck 24.0912 16.3017 -12.4833
head 10.3044 8.07194 -5.45011
rclavicle -2.48481e-017 -1.86858e-014
rhumerus 15.5697 39.0777 -93.8556
rradius 87.612
rwrist 14.9278
rhand -13.8004 -8.04213
rfingers 7.12502
rthumb 12.3216 -37.6591
lclavicle -2.48481e-017 -1.86858e-014
lhumerus 13.4292 -30.948 95.5297
lradius 81.6041
lwrist 41.4142
lhand 1.38302 27.8894
lfingers 7.12502
lthumb 26.9144 55.9931
rfemur -14.6518 1.89738 18.1179
rtibia 33.209
rfoot -23.7674 -14.1729
rtoes -8.6561
lfemur -31.8141 3.03573 -7.30616
ltibia 36.5611
lfoot -11.5011 14.7974
ltoes -7.17721
386
root -1.11443 15.4121 8.15571 8.95755 -15.5862 -1.24768
lowerback 0.124505 -3.15361 3.39435
upperback -6.27482 -4.02932 1.91766
thorax -6.69885 -2.13899 0.352466
lowerneck -1.11213 10.8007 16.7952
upperneck 24.0917 16.4934 -12.5946
head 10.3391 8.15533 -5.46904
rclavicle -1.89342e-014 1.78906e-014
rhumerus 15.9087 40.2888 -93.2862
rradius 89.8758
rwrist 15.5326
rhand -13.8648 -8.29845
rfingers 7.12502
rthumb 12.2595 -37.9191
lclavicle -1.89342e-014 1.78906e-014
lhumerus 14.8975 -31.1562 94.7383
lradius 83.0207
lwrist 42.5318
lhand 1.32616 28.1102
lfingers 7.12502
lthumb 26.86 56.2222
rfemur -14.4768 2.0252 17.929
rtibia 32.9024
rfoot -23.6183 -14.1943
rtoes -8.57991
lfemur -31.8249 2.24254 -6.65513
ltibia 34.282
lfoot -10.8074 15.5017
ltoes -6.69879
387
root -1.08192 15.4144 8.23341 9.14759 -15.7554 -1.26289
lowerback 0.100652 -3.23714 3.35817
upperback -6.31722 -4.13947 1.99882
thorax -6.72434 -2.19001 0.46439
lowerneck -1.03469 10.9105 16.8136
upperneck 24.0912 16.6891 -12.7145
head 10.3723 8.2398 -5.48989
rclavicle 5.34234e-015 -3.29983e-014
rhumerus 16.2785 41.6022 -92.581
rradius 92.1783
rwrist 15.1026
rhand -14.3056 -8.69509
rfingers 7.12502
rthumb 11.8344 -38.3407
lclavicle 5.34234e-015 -3.29983e-014
lhumerus 16.4272 -31.4083 93.7452
lradius 84.3325
lwrist 43.2669
lhand 1.35744 28.1301
lfingers 7.12502
lthumb 26.8899 56.2375
rfemur -14.2734 2.15482 17.7288
rtibia 32.5485
rfoot -23.4793 -14.2291
rtoes -8.65251
lfemur -31.8033 1.39898 -5.96877
ltibia 32.0606
lfoot -9.86845 16.1928
ltoes -6.13729
388
root -1.04752 15.4169 8.31392 9.3374 -15.9311 -1.27737
lowerback 0.060892 -3.32676 3.3144
upperback -6.35892 -4.25826 2.09192
thorax -6.7381 -2.2445 0.59228
lowerneck -0.929527 11.0213 16.8132
upperneck 24.0805 16.8922 -12.8409
head 10.3968 8.32678 -5.51057
rclavicle -5.49391e-014 -1.47101e-014
rhumerus 16.6831 42.9969 -91.7362
rradius 94.5365
rwrist 13.7252
rhand -14.95 -9.22745
rfingers 7.12502
rthumb 11.213 -38.9078
lclavicle -5.49391e-014 -1.47101e-014
lhumerus 18.0186 -31.6759 92.5354
lradius 85.5288
lwrist 43.6338
lhand 1.48683 27.9132
lfingers 7.12502
lthumb 27.0137 56.0015
rfemur -14.0363 2.28551 17.5141
rtibia 32.1461
rfoot -23.3498 -14.2728
rtoes -8.87068
lfemur -31.7566 0.518688 -5.25818
ltibia 29.9373
lfoot -8.75407 16.8707
ltoes -5.4543
